solid Base v1.14
facet normal 0.9238795325112836 -0.3826834323650976 0.0
  outer loop
    vertex 222.14982521399395 358.83753443311076 0.0
    vertex 221.65032310147078 357.6316296586234 28.5
    vertex 221.65032310147078 357.6316296586234 0.0
  endloop
endfacet
facet normal 0.9238795325112836 -0.3826834323650976 0.0
  outer loop
    vertex 221.65032310147078 357.6316296586234 28.5
    vertex 222.14982521399395 358.83753443311076 0.0
    vertex 222.14982521399395 358.83753443311076 28.5
  endloop
endfacet
facet normal 0.13052619222005837 -0.9914448613738096 0.0
  outer loop
    vertex 218.6142913080612 355.30200052717805 28.5
    vertex 217.32019608254862 355.1316296586234 0.0
    vertex 218.6142913080612 355.30200052717805 0.0
  endloop
endfacet
facet normal 0.13052619222005837 -0.9914448613738096 0.0
  outer loop
    vertex 217.32019608254862 355.1316296586234 0.0
    vertex 218.6142913080612 355.30200052717805 28.5
    vertex 217.32019608254862 355.1316296586234 28.5
  endloop
endfacet
facet normal -0.38268343236508534 -0.9238795325112885 -0.0
  outer loop
    vertex 216.02610085703603 355.30200052717805 28.5
    vertex 214.8201960825486 355.80150263970125 0.0
    vertex 216.02610085703603 355.30200052717805 0.0
  endloop
endfacet
facet normal -0.38268343236508534 -0.9238795325112885 -0.0
  outer loop
    vertex 214.8201960825486 355.80150263970125 0.0
    vertex 216.02610085703603 355.30200052717805 28.5
    vertex 214.8201960825486 355.80150263970125 28.5
  endloop
endfacet
facet normal 0.0 0.0 1.0
  outer loop
    vertex 212.4905669511033 358.8375344331108 28.5
    vertex 222.32019608254862 360.1316296586234 28.5
    vertex 212.32019608254862 360.1316296586234 28.5
  endloop
endfacet
facet normal 0.0 0.0 1.0
  outer loop
    vertex 222.32019608254862 360.1316296586234 28.5
    vertex 212.4905669511033 358.8375344331108 28.5
    vertex 212.99006906362646 357.6316296586234 28.5
  endloop
endfacet
facet normal 0.0 0.0 1.0
  outer loop
    vertex 222.32019608254862 360.1316296586234 28.5
    vertex 212.99006906362646 357.6316296586234 28.5
    vertex 213.78466217661588 356.59609575269064 28.5
  endloop
endfacet
facet normal 0.0 0.0 1.0
  outer loop
    vertex 222.32019608254862 360.1316296586234 28.5
    vertex 213.78466217661588 356.59609575269064 28.5
    vertex 214.8201960825486 355.80150263970125 28.5
  endloop
endfacet
facet normal 0.0 0.0 1.0
  outer loop
    vertex 222.32019608254862 360.1316296586234 28.5
    vertex 214.8201960825486 355.80150263970125 28.5
    vertex 216.02610085703603 355.30200052717805 28.5
  endloop
endfacet
facet normal 0.0 0.0 1.0
  outer loop
    vertex 222.32019608254862 360.1316296586234 28.5
    vertex 216.02610085703603 355.30200052717805 28.5
    vertex 217.32019608254862 355.1316296586234 28.5
  endloop
endfacet
facet normal 0.0 0.0 1.0
  outer loop
    vertex 222.32019608254862 360.1316296586234 28.5
    vertex 217.32019608254862 355.1316296586234 28.5
    vertex 218.6142913080612 355.30200052717805 28.5
  endloop
endfacet
facet normal 0.0 0.0 1.0
  outer loop
    vertex 222.32019608254862 360.1316296586234 28.5
    vertex 218.6142913080612 355.30200052717805 28.5
    vertex 219.8201960825486 355.80150263970125 28.5
  endloop
endfacet
facet normal 0.0 0.0 1.0
  outer loop
    vertex 222.32019608254862 360.1316296586234 28.5
    vertex 219.8201960825486 355.80150263970125 28.5
    vertex 220.85572998848136 356.59609575269064 28.5
  endloop
endfacet
facet normal 0.0 0.0 1.0
  outer loop
    vertex 222.32019608254862 360.1316296586234 28.5
    vertex 220.85572998848136 356.59609575269064 28.5
    vertex 221.65032310147078 357.6316296586234 28.5
  endloop
endfacet
facet normal 0.0 0.0 1.0
  outer loop
    vertex 222.32019608254862 360.1316296586234 28.5
    vertex 221.65032310147078 357.6316296586234 28.5
    vertex 222.14982521399395 358.83753443311076 28.5
  endloop
endfacet
facet normal 0.0 1.0 0.0
  outer loop
    vertex 212.32019608254862 360.1316296586234 28.5
    vertex 222.32019608254862 360.1316296586234 0.0
    vertex 212.32019608254862 360.1316296586234 0.0
  endloop
endfacet
facet normal 0.0 1.0 0.0
  outer loop
    vertex 222.32019608254862 360.1316296586234 0.0
    vertex 212.32019608254862 360.1316296586234 28.5
    vertex 222.32019608254862 360.1316296586234 28.5
  endloop
endfacet
facet normal -0.6087614290087074 -0.7933533402912453 -0.0
  outer loop
    vertex 214.8201960825486 355.80150263970125 28.5
    vertex 213.78466217661588 356.59609575269064 0.0
    vertex 214.8201960825486 355.80150263970125 0.0
  endloop
endfacet
facet normal -0.6087614290087074 -0.7933533402912453 -0.0
  outer loop
    vertex 213.78466217661588 356.59609575269064 0.0
    vertex 214.8201960825486 355.80150263970125 28.5
    vertex 213.78466217661588 356.59609575269064 28.5
  endloop
endfacet
facet normal -0.9238795325112836 -0.3826834323650976 -0.0
  outer loop
    vertex 212.4905669511033 358.8375344331108 28.5
    vertex 212.99006906362646 357.6316296586234 0.0
    vertex 212.99006906362646 357.6316296586234 28.5
  endloop
endfacet
facet normal -0.9238795325112836 -0.3826834323650976 -0.0
  outer loop
    vertex 212.99006906362646 357.6316296586234 0.0
    vertex 212.4905669511033 358.8375344331108 28.5
    vertex 212.4905669511033 358.8375344331108 0.0
  endloop
endfacet
facet normal 0.3826834323650976 -0.9238795325112836 0.0
  outer loop
    vertex 219.8201960825486 355.80150263970125 28.5
    vertex 218.6142913080612 355.30200052717805 0.0
    vertex 219.8201960825486 355.80150263970125 0.0
  endloop
endfacet
facet normal 0.3826834323650976 -0.9238795325112836 0.0
  outer loop
    vertex 218.6142913080612 355.30200052717805 0.0
    vertex 219.8201960825486 355.80150263970125 28.5
    vertex 218.6142913080612 355.30200052717805 28.5
  endloop
endfacet
facet normal -0.7933533402912581 -0.6087614290086908 -0.0
  outer loop
    vertex 212.99006906362646 357.6316296586234 28.5
    vertex 213.78466217661588 356.59609575269064 0.0
    vertex 213.78466217661588 356.59609575269064 28.5
  endloop
endfacet
facet normal -0.7933533402912581 -0.6087614290086908 -0.0
  outer loop
    vertex 213.78466217661588 356.59609575269064 0.0
    vertex 212.99006906362646 357.6316296586234 28.5
    vertex 212.99006906362646 357.6316296586234 0.0
  endloop
endfacet
facet normal 0.0 0.0 -1.0
  outer loop
    vertex 222.32019608254862 360.1316296586234 0.0
    vertex 212.4905669511033 358.8375344331108 0.0
    vertex 212.32019608254862 360.1316296586234 0.0
  endloop
endfacet
facet normal 0.0 0.0 -1.0
  outer loop
    vertex 212.4905669511033 358.8375344331108 0.0
    vertex 222.32019608254862 360.1316296586234 0.0
    vertex 212.99006906362646 357.6316296586234 0.0
  endloop
endfacet
facet normal 0.0 0.0 -1.0
  outer loop
    vertex 212.99006906362646 357.6316296586234 0.0
    vertex 222.32019608254862 360.1316296586234 0.0
    vertex 213.78466217661588 356.59609575269064 0.0
  endloop
endfacet
facet normal 0.0 0.0 -1.0
  outer loop
    vertex 213.78466217661588 356.59609575269064 0.0
    vertex 222.32019608254862 360.1316296586234 0.0
    vertex 214.8201960825486 355.80150263970125 0.0
  endloop
endfacet
facet normal 0.0 0.0 -1.0
  outer loop
    vertex 214.8201960825486 355.80150263970125 0.0
    vertex 222.32019608254862 360.1316296586234 0.0
    vertex 216.02610085703603 355.30200052717805 0.0
  endloop
endfacet
facet normal 0.0 0.0 -1.0
  outer loop
    vertex 216.02610085703603 355.30200052717805 0.0
    vertex 222.32019608254862 360.1316296586234 0.0
    vertex 217.32019608254862 355.1316296586234 0.0
  endloop
endfacet
facet normal 0.0 0.0 -1.0
  outer loop
    vertex 217.32019608254862 355.1316296586234 0.0
    vertex 222.32019608254862 360.1316296586234 0.0
    vertex 218.6142913080612 355.30200052717805 0.0
  endloop
endfacet
facet normal 0.0 0.0 -1.0
  outer loop
    vertex 218.6142913080612 355.30200052717805 0.0
    vertex 222.32019608254862 360.1316296586234 0.0
    vertex 219.8201960825486 355.80150263970125 0.0
  endloop
endfacet
facet normal 0.0 0.0 -1.0
  outer loop
    vertex 219.8201960825486 355.80150263970125 0.0
    vertex 222.32019608254862 360.1316296586234 0.0
    vertex 220.85572998848136 356.59609575269064 0.0
  endloop
endfacet
facet normal 0.0 0.0 -1.0
  outer loop
    vertex 220.85572998848136 356.59609575269064 0.0
    vertex 222.32019608254862 360.1316296586234 0.0
    vertex 221.65032310147078 357.6316296586234 0.0
  endloop
endfacet
facet normal 0.0 0.0 -1.0
  outer loop
    vertex 221.65032310147078 357.6316296586234 0.0
    vertex 222.32019608254862 360.1316296586234 0.0
    vertex 222.14982521399395 358.83753443311076 0.0
  endloop
endfacet
facet normal 0.6087614290086908 -0.7933533402912581 0.0
  outer loop
    vertex 220.85572998848136 356.59609575269064 28.5
    vertex 219.8201960825486 355.80150263970125 0.0
    vertex 220.85572998848136 356.59609575269064 0.0
  endloop
endfacet
facet normal 0.6087614290086908 -0.7933533402912581 0.0
  outer loop
    vertex 219.8201960825486 355.80150263970125 0.0
    vertex 220.85572998848136 356.59609575269064 28.5
    vertex 219.8201960825486 355.80150263970125 28.5
  endloop
endfacet
facet normal 0.9914448613738102 -0.13052619222005388 0.0
  outer loop
    vertex 222.32019608254862 360.1316296586234 0.0
    vertex 222.14982521399395 358.83753443311076 28.5
    vertex 222.14982521399395 358.83753443311076 0.0
  endloop
endfacet
facet normal 0.9914448613738102 -0.13052619222005388 0.0
  outer loop
    vertex 222.14982521399395 358.83753443311076 28.5
    vertex 222.32019608254862 360.1316296586234 0.0
    vertex 222.32019608254862 360.1316296586234 28.5
  endloop
endfacet
facet normal -0.9914448613738096 -0.13052619222005837 -0.0
  outer loop
    vertex 212.32019608254862 360.1316296586234 28.5
    vertex 212.4905669511033 358.8375344331108 0.0
    vertex 212.4905669511033 358.8375344331108 28.5
  endloop
endfacet
facet normal -0.9914448613738096 -0.13052619222005837 -0.0
  outer loop
    vertex 212.4905669511033 358.8375344331108 0.0
    vertex 212.32019608254862 360.1316296586234 28.5
    vertex 212.32019608254862 360.1316296586234 0.0
  endloop
endfacet
facet normal -0.13052619222005837 -0.9914448613738096 -0.0
  outer loop
    vertex 217.32019608254862 355.1316296586234 28.5
    vertex 216.02610085703603 355.30200052717805 0.0
    vertex 217.32019608254862 355.1316296586234 0.0
  endloop
endfacet
facet normal -0.13052619222005837 -0.9914448613738096 -0.0
  outer loop
    vertex 216.02610085703603 355.30200052717805 0.0
    vertex 217.32019608254862 355.1316296586234 28.5
    vertex 216.02610085703603 355.30200052717805 28.5
  endloop
endfacet
facet normal 0.7933533402912453 -0.6087614290087074 0.0
  outer loop
    vertex 221.65032310147078 357.6316296586234 0.0
    vertex 220.85572998848136 356.59609575269064 28.5
    vertex 220.85572998848136 356.59609575269064 0.0
  endloop
endfacet
facet normal 0.7933533402912453 -0.6087614290087074 0.0
  outer loop
    vertex 220.85572998848136 356.59609575269064 28.5
    vertex 221.65032310147078 357.6316296586234 0.0
    vertex 221.65032310147078 357.6316296586234 28.5
  endloop
endfacet
endsolid Base v1.14
